<mxfile host="app.diagrams.net" modified="2022-02-17T15:45:40.723Z" agent="5.0 (Windows NT 10.0; Win64; x64) AppleWebKit/537.36 (KHTML, like Gecko) Chrome/98.0.4758.80 Safari/537.36 Edg/98.0.1108.50" etag="IJ9CX6EssREtrPZurR26" version="16.5.6" type="github">
  <diagram id="iKZTLfizrBLWF1osqMsN" name="Page-1">
    <mxGraphModel dx="1792" dy="1736" grid="1" gridSize="10" guides="1" tooltips="1" connect="1" arrows="1" fold="1" page="1" pageScale="1" pageWidth="827" pageHeight="1169" math="0" shadow="0">
      <root>
        <mxCell id="0" />
        <mxCell id="1" parent="0" />
        <mxCell id="ewGO8U9_hze2pfh3veyB-21" style="edgeStyle=none;rounded=0;orthogonalLoop=1;jettySize=auto;html=1;exitX=1;exitY=0.5;exitDx=0;exitDy=0;entryX=0;entryY=0.5;entryDx=0;entryDy=0;endArrow=none;endFill=0;startArrow=classic;startFill=1;shape=link;" edge="1" parent="1" source="ewGO8U9_hze2pfh3veyB-1" target="ewGO8U9_hze2pfh3veyB-20">
          <mxGeometry relative="1" as="geometry" />
        </mxCell>
        <mxCell id="ewGO8U9_hze2pfh3veyB-1" value="PaÃ­s" style="whiteSpace=wrap;html=1;align=center;" vertex="1" parent="1">
          <mxGeometry x="-90" y="90" width="100" height="40" as="geometry" />
        </mxCell>
        <mxCell id="ewGO8U9_hze2pfh3veyB-26" style="edgeStyle=none;rounded=0;orthogonalLoop=1;jettySize=auto;html=1;exitX=1;exitY=0.5;exitDx=0;exitDy=0;entryX=0;entryY=0.5;entryDx=0;entryDy=0;startArrow=none;startFill=0;endArrow=none;endFill=0;" edge="1" parent="1" source="ewGO8U9_hze2pfh3veyB-2" target="ewGO8U9_hze2pfh3veyB-25">
          <mxGeometry relative="1" as="geometry" />
        </mxCell>
        <mxCell id="ewGO8U9_hze2pfh3veyB-2" value="Ciudad" style="whiteSpace=wrap;html=1;align=center;" vertex="1" parent="1">
          <mxGeometry x="270" y="90" width="100" height="40" as="geometry" />
        </mxCell>
        <mxCell id="ewGO8U9_hze2pfh3veyB-3" value="Sucursal" style="whiteSpace=wrap;html=1;align=center;" vertex="1" parent="1">
          <mxGeometry x="630" y="90" width="100" height="40" as="geometry" />
        </mxCell>
        <mxCell id="ewGO8U9_hze2pfh3veyB-115" style="edgeStyle=none;shape=link;rounded=0;orthogonalLoop=1;jettySize=auto;html=1;exitX=0.5;exitY=1;exitDx=0;exitDy=0;entryX=0.5;entryY=0;entryDx=0;entryDy=0;startArrow=none;startFill=0;endArrow=none;endFill=0;" edge="1" parent="1" source="ewGO8U9_hze2pfh3veyB-5" target="ewGO8U9_hze2pfh3veyB-114">
          <mxGeometry relative="1" as="geometry" />
        </mxCell>
        <mxCell id="ewGO8U9_hze2pfh3veyB-123" style="edgeStyle=none;shape=link;rounded=0;orthogonalLoop=1;jettySize=auto;html=1;exitX=1;exitY=0.5;exitDx=0;exitDy=0;entryX=0;entryY=0.5;entryDx=0;entryDy=0;startArrow=none;startFill=0;endArrow=none;endFill=0;" edge="1" parent="1" source="ewGO8U9_hze2pfh3veyB-5" target="ewGO8U9_hze2pfh3veyB-121">
          <mxGeometry relative="1" as="geometry" />
        </mxCell>
        <mxCell id="ewGO8U9_hze2pfh3veyB-158" style="edgeStyle=none;rounded=0;orthogonalLoop=1;jettySize=auto;html=1;exitX=1;exitY=1;exitDx=0;exitDy=0;entryX=0;entryY=0.5;entryDx=0;entryDy=0;startArrow=none;startFill=0;endArrow=none;endFill=0;shape=link;" edge="1" parent="1" source="ewGO8U9_hze2pfh3veyB-5" target="ewGO8U9_hze2pfh3veyB-156">
          <mxGeometry relative="1" as="geometry" />
        </mxCell>
        <mxCell id="ewGO8U9_hze2pfh3veyB-5" value="Pelicula" style="whiteSpace=wrap;html=1;align=center;" vertex="1" parent="1">
          <mxGeometry x="1150" y="340" width="100" height="40" as="geometry" />
        </mxCell>
        <mxCell id="ewGO8U9_hze2pfh3veyB-6" value="Idioma" style="whiteSpace=wrap;html=1;align=center;" vertex="1" parent="1">
          <mxGeometry x="1156" y="710" width="100" height="40" as="geometry" />
        </mxCell>
        <mxCell id="ewGO8U9_hze2pfh3veyB-7" value="Genero" style="whiteSpace=wrap;html=1;align=center;" vertex="1" parent="1">
          <mxGeometry x="630" y="595" width="100" height="40" as="geometry" />
        </mxCell>
        <mxCell id="ewGO8U9_hze2pfh3veyB-8" value="Clasificacion" style="whiteSpace=wrap;html=1;align=center;" vertex="1" parent="1">
          <mxGeometry x="1710" y="570" width="100" height="40" as="geometry" />
        </mxCell>
        <mxCell id="ewGO8U9_hze2pfh3veyB-102" style="edgeStyle=none;rounded=0;orthogonalLoop=1;jettySize=auto;html=1;exitX=1;exitY=0.5;exitDx=0;exitDy=0;entryX=0;entryY=0.5;entryDx=0;entryDy=0;startArrow=none;startFill=0;endArrow=none;endFill=0;shape=link;" edge="1" parent="1" source="ewGO8U9_hze2pfh3veyB-9" target="ewGO8U9_hze2pfh3veyB-100">
          <mxGeometry relative="1" as="geometry" />
        </mxCell>
        <mxCell id="ewGO8U9_hze2pfh3veyB-9" value="Director" style="whiteSpace=wrap;html=1;align=center;" vertex="1" parent="1">
          <mxGeometry x="640" y="340" width="100" height="40" as="geometry" />
        </mxCell>
        <mxCell id="ewGO8U9_hze2pfh3veyB-10" value="Formato" style="whiteSpace=wrap;html=1;align=center;" vertex="1" parent="1">
          <mxGeometry x="1710" y="340" width="100" height="40" as="geometry" />
        </mxCell>
        <mxCell id="ewGO8U9_hze2pfh3veyB-16" style="rounded=0;orthogonalLoop=1;jettySize=auto;html=1;entryX=0.25;entryY=0;entryDx=0;entryDy=0;endArrow=none;endFill=0;" edge="1" parent="1" source="ewGO8U9_hze2pfh3veyB-12" target="ewGO8U9_hze2pfh3veyB-1">
          <mxGeometry relative="1" as="geometry" />
        </mxCell>
        <mxCell id="ewGO8U9_hze2pfh3veyB-12" value="IdPais" style="ellipse;whiteSpace=wrap;html=1;align=center;fontStyle=4;" vertex="1" parent="1">
          <mxGeometry x="-170" y="20" width="100" height="40" as="geometry" />
        </mxCell>
        <mxCell id="ewGO8U9_hze2pfh3veyB-17" style="rounded=0;orthogonalLoop=1;jettySize=auto;html=1;exitX=0.5;exitY=1;exitDx=0;exitDy=0;entryX=0.75;entryY=0;entryDx=0;entryDy=0;endArrow=none;endFill=0;" edge="1" parent="1" source="ewGO8U9_hze2pfh3veyB-13" target="ewGO8U9_hze2pfh3veyB-1">
          <mxGeometry relative="1" as="geometry" />
        </mxCell>
        <mxCell id="ewGO8U9_hze2pfh3veyB-13" value="NombrePais" style="ellipse;whiteSpace=wrap;html=1;align=center;" vertex="1" parent="1">
          <mxGeometry x="-30" y="20" width="100" height="40" as="geometry" />
        </mxCell>
        <mxCell id="ewGO8U9_hze2pfh3veyB-18" style="edgeStyle=none;rounded=0;orthogonalLoop=1;jettySize=auto;html=1;exitX=0.5;exitY=1;exitDx=0;exitDy=0;entryX=0.18;entryY=0.026;entryDx=0;entryDy=0;entryPerimeter=0;endArrow=none;endFill=0;" edge="1" parent="1" source="ewGO8U9_hze2pfh3veyB-14" target="ewGO8U9_hze2pfh3veyB-2">
          <mxGeometry relative="1" as="geometry" />
        </mxCell>
        <mxCell id="ewGO8U9_hze2pfh3veyB-14" value="IdCiudad" style="ellipse;whiteSpace=wrap;html=1;align=center;fontStyle=4;" vertex="1" parent="1">
          <mxGeometry x="180" y="20" width="100" height="40" as="geometry" />
        </mxCell>
        <mxCell id="ewGO8U9_hze2pfh3veyB-19" style="edgeStyle=none;rounded=0;orthogonalLoop=1;jettySize=auto;html=1;exitX=0.5;exitY=1;exitDx=0;exitDy=0;entryX=0.5;entryY=0;entryDx=0;entryDy=0;endArrow=none;endFill=0;" edge="1" parent="1" source="ewGO8U9_hze2pfh3veyB-15" target="ewGO8U9_hze2pfh3veyB-2">
          <mxGeometry relative="1" as="geometry" />
        </mxCell>
        <mxCell id="ewGO8U9_hze2pfh3veyB-15" value="NombreCiudad" style="ellipse;whiteSpace=wrap;html=1;align=center;" vertex="1" parent="1">
          <mxGeometry x="314" y="20" width="100" height="40" as="geometry" />
        </mxCell>
        <mxCell id="ewGO8U9_hze2pfh3veyB-22" style="edgeStyle=none;rounded=0;orthogonalLoop=1;jettySize=auto;html=1;exitX=1;exitY=0.5;exitDx=0;exitDy=0;entryX=0;entryY=0.5;entryDx=0;entryDy=0;endArrow=none;endFill=0;shape=link;" edge="1" parent="1" source="ewGO8U9_hze2pfh3veyB-20" target="ewGO8U9_hze2pfh3veyB-2">
          <mxGeometry relative="1" as="geometry" />
        </mxCell>
        <mxCell id="ewGO8U9_hze2pfh3veyB-20" value="Contiene" style="shape=rhombus;perimeter=rhombusPerimeter;whiteSpace=wrap;html=1;align=center;" vertex="1" parent="1">
          <mxGeometry x="70" y="80" width="120" height="60" as="geometry" />
        </mxCell>
        <mxCell id="ewGO8U9_hze2pfh3veyB-23" value="1" style="text;html=1;align=center;verticalAlign=middle;resizable=0;points=[];autosize=1;strokeColor=none;fillColor=none;" vertex="1" parent="1">
          <mxGeometry x="10" y="110" width="20" height="20" as="geometry" />
        </mxCell>
        <mxCell id="ewGO8U9_hze2pfh3veyB-24" value="N" style="text;html=1;align=center;verticalAlign=middle;resizable=0;points=[];autosize=1;strokeColor=none;fillColor=none;" vertex="1" parent="1">
          <mxGeometry x="240" y="110" width="20" height="20" as="geometry" />
        </mxCell>
        <mxCell id="ewGO8U9_hze2pfh3veyB-27" style="edgeStyle=none;rounded=0;orthogonalLoop=1;jettySize=auto;html=1;exitX=1;exitY=0.5;exitDx=0;exitDy=0;entryX=0;entryY=0.5;entryDx=0;entryDy=0;startArrow=none;startFill=0;endArrow=none;endFill=0;shape=link;" edge="1" parent="1" source="ewGO8U9_hze2pfh3veyB-25" target="ewGO8U9_hze2pfh3veyB-3">
          <mxGeometry relative="1" as="geometry" />
        </mxCell>
        <mxCell id="ewGO8U9_hze2pfh3veyB-25" value="Tener" style="shape=rhombus;perimeter=rhombusPerimeter;whiteSpace=wrap;html=1;align=center;" vertex="1" parent="1">
          <mxGeometry x="440" y="80" width="120" height="60" as="geometry" />
        </mxCell>
        <mxCell id="ewGO8U9_hze2pfh3veyB-28" value="1" style="text;html=1;align=center;verticalAlign=middle;resizable=0;points=[];autosize=1;strokeColor=none;fillColor=none;" vertex="1" parent="1">
          <mxGeometry x="370" y="110" width="20" height="20" as="geometry" />
        </mxCell>
        <mxCell id="ewGO8U9_hze2pfh3veyB-29" value="N" style="text;html=1;align=center;verticalAlign=middle;resizable=0;points=[];autosize=1;strokeColor=none;fillColor=none;" vertex="1" parent="1">
          <mxGeometry x="610" y="110" width="20" height="20" as="geometry" />
        </mxCell>
        <mxCell id="ewGO8U9_hze2pfh3veyB-75" style="edgeStyle=none;rounded=0;orthogonalLoop=1;jettySize=auto;html=1;exitX=1;exitY=0.5;exitDx=0;exitDy=0;entryX=0;entryY=0.5;entryDx=0;entryDy=0;startArrow=none;startFill=0;endArrow=none;endFill=0;" edge="1" parent="1" source="ewGO8U9_hze2pfh3veyB-33" target="ewGO8U9_hze2pfh3veyB-74">
          <mxGeometry relative="1" as="geometry" />
        </mxCell>
        <mxCell id="ewGO8U9_hze2pfh3veyB-86" style="edgeStyle=none;rounded=0;orthogonalLoop=1;jettySize=auto;html=1;exitX=0.5;exitY=1;exitDx=0;exitDy=0;entryX=0.5;entryY=0;entryDx=0;entryDy=0;startArrow=none;startFill=0;endArrow=none;endFill=0;" edge="1" parent="1" source="ewGO8U9_hze2pfh3veyB-33" target="ewGO8U9_hze2pfh3veyB-85">
          <mxGeometry relative="1" as="geometry" />
        </mxCell>
        <mxCell id="ewGO8U9_hze2pfh3veyB-33" value="Sala" style="shape=ext;margin=3;double=1;whiteSpace=wrap;html=1;align=center;" vertex="1" parent="1">
          <mxGeometry x="1150" y="90" width="100" height="40" as="geometry" />
        </mxCell>
        <mxCell id="ewGO8U9_hze2pfh3veyB-67" style="edgeStyle=none;rounded=0;orthogonalLoop=1;jettySize=auto;html=1;exitX=0;exitY=0.5;exitDx=0;exitDy=0;entryX=1;entryY=0.5;entryDx=0;entryDy=0;startArrow=none;startFill=0;endArrow=none;endFill=0;" edge="1" parent="1" source="ewGO8U9_hze2pfh3veyB-34" target="ewGO8U9_hze2pfh3veyB-3">
          <mxGeometry relative="1" as="geometry" />
        </mxCell>
        <mxCell id="ewGO8U9_hze2pfh3veyB-68" style="edgeStyle=none;rounded=0;orthogonalLoop=1;jettySize=auto;html=1;exitX=1;exitY=0.5;exitDx=0;exitDy=0;entryX=0;entryY=0.5;entryDx=0;entryDy=0;startArrow=none;startFill=0;endArrow=none;endFill=0;shape=link;" edge="1" parent="1" source="ewGO8U9_hze2pfh3veyB-34" target="ewGO8U9_hze2pfh3veyB-33">
          <mxGeometry relative="1" as="geometry" />
        </mxCell>
        <mxCell id="ewGO8U9_hze2pfh3veyB-34" value="Vincular" style="shape=rhombus;double=1;perimeter=rhombusPerimeter;whiteSpace=wrap;html=1;align=center;" vertex="1" parent="1">
          <mxGeometry x="890" y="80" width="120" height="60" as="geometry" />
        </mxCell>
        <mxCell id="ewGO8U9_hze2pfh3veyB-38" style="edgeStyle=none;rounded=0;orthogonalLoop=1;jettySize=auto;html=1;exitX=1;exitY=1;exitDx=0;exitDy=0;entryX=0.25;entryY=0;entryDx=0;entryDy=0;startArrow=none;startFill=0;endArrow=none;endFill=0;" edge="1" parent="1" source="ewGO8U9_hze2pfh3veyB-35" target="ewGO8U9_hze2pfh3veyB-3">
          <mxGeometry relative="1" as="geometry" />
        </mxCell>
        <mxCell id="ewGO8U9_hze2pfh3veyB-35" value="&lt;span style=&quot;border-bottom: 1px dotted&quot;&gt;IdSucursal&lt;/span&gt;" style="ellipse;whiteSpace=wrap;html=1;align=center;" vertex="1" parent="1">
          <mxGeometry x="430" y="30" width="100" height="40" as="geometry" />
        </mxCell>
        <mxCell id="ewGO8U9_hze2pfh3veyB-39" style="edgeStyle=none;rounded=0;orthogonalLoop=1;jettySize=auto;html=1;exitX=0.5;exitY=1;exitDx=0;exitDy=0;entryX=0.5;entryY=0;entryDx=0;entryDy=0;startArrow=none;startFill=0;endArrow=none;endFill=0;" edge="1" parent="1" source="ewGO8U9_hze2pfh3veyB-37" target="ewGO8U9_hze2pfh3veyB-3">
          <mxGeometry relative="1" as="geometry" />
        </mxCell>
        <mxCell id="ewGO8U9_hze2pfh3veyB-37" value="NombreSucursal" style="ellipse;whiteSpace=wrap;html=1;align=center;" vertex="1" parent="1">
          <mxGeometry x="540" y="-60" width="100" height="40" as="geometry" />
        </mxCell>
        <mxCell id="ewGO8U9_hze2pfh3veyB-41" style="edgeStyle=none;rounded=0;orthogonalLoop=1;jettySize=auto;html=1;exitX=0.5;exitY=1;exitDx=0;exitDy=0;entryX=0.75;entryY=0;entryDx=0;entryDy=0;startArrow=none;startFill=0;endArrow=none;endFill=0;" edge="1" parent="1" source="ewGO8U9_hze2pfh3veyB-40" target="ewGO8U9_hze2pfh3veyB-3">
          <mxGeometry relative="1" as="geometry" />
        </mxCell>
        <mxCell id="ewGO8U9_hze2pfh3veyB-40" value="Direccion" style="ellipse;whiteSpace=wrap;html=1;align=center;" vertex="1" parent="1">
          <mxGeometry x="770" width="100" height="40" as="geometry" />
        </mxCell>
        <mxCell id="ewGO8U9_hze2pfh3veyB-57" style="edgeStyle=none;rounded=0;orthogonalLoop=1;jettySize=auto;html=1;exitX=1;exitY=0.5;exitDx=0;exitDy=0;entryX=0;entryY=0;entryDx=0;entryDy=0;startArrow=none;startFill=0;endArrow=none;endFill=0;" edge="1" parent="1" source="ewGO8U9_hze2pfh3veyB-42" target="ewGO8U9_hze2pfh3veyB-40">
          <mxGeometry relative="1" as="geometry" />
        </mxCell>
        <mxCell id="ewGO8U9_hze2pfh3veyB-42" value="TipoVia" style="ellipse;whiteSpace=wrap;html=1;align=center;" vertex="1" parent="1">
          <mxGeometry x="620" y="-30" width="100" height="40" as="geometry" />
        </mxCell>
        <mxCell id="ewGO8U9_hze2pfh3veyB-58" style="edgeStyle=none;rounded=0;orthogonalLoop=1;jettySize=auto;html=1;exitX=1;exitY=0.5;exitDx=0;exitDy=0;entryX=0.345;entryY=0.041;entryDx=0;entryDy=0;entryPerimeter=0;startArrow=none;startFill=0;endArrow=none;endFill=0;" edge="1" parent="1" source="ewGO8U9_hze2pfh3veyB-43" target="ewGO8U9_hze2pfh3veyB-40">
          <mxGeometry relative="1" as="geometry" />
        </mxCell>
        <mxCell id="ewGO8U9_hze2pfh3veyB-43" value="NombreNumero" style="ellipse;whiteSpace=wrap;html=1;align=center;" vertex="1" parent="1">
          <mxGeometry x="640" y="-80" width="100" height="40" as="geometry" />
        </mxCell>
        <mxCell id="ewGO8U9_hze2pfh3veyB-59" style="edgeStyle=none;rounded=0;orthogonalLoop=1;jettySize=auto;html=1;exitX=0.5;exitY=1;exitDx=0;exitDy=0;entryX=0.5;entryY=0;entryDx=0;entryDy=0;startArrow=none;startFill=0;endArrow=none;endFill=0;" edge="1" parent="1" source="ewGO8U9_hze2pfh3veyB-44" target="ewGO8U9_hze2pfh3veyB-40">
          <mxGeometry relative="1" as="geometry" />
        </mxCell>
        <mxCell id="ewGO8U9_hze2pfh3veyB-44" value="PrefijoCuadrante" style="ellipse;whiteSpace=wrap;html=1;align=center;" vertex="1" parent="1">
          <mxGeometry x="720" y="-120" width="100" height="40" as="geometry" />
        </mxCell>
        <mxCell id="ewGO8U9_hze2pfh3veyB-50" style="edgeStyle=none;rounded=0;orthogonalLoop=1;jettySize=auto;html=1;exitX=1;exitY=1;exitDx=0;exitDy=0;entryX=0.25;entryY=0;entryDx=0;entryDy=0;startArrow=none;startFill=0;endArrow=none;endFill=0;" edge="1" parent="1" source="ewGO8U9_hze2pfh3veyB-48" target="ewGO8U9_hze2pfh3veyB-3">
          <mxGeometry relative="1" as="geometry" />
        </mxCell>
        <mxCell id="ewGO8U9_hze2pfh3veyB-48" value="Telefono" style="ellipse;shape=doubleEllipse;margin=3;whiteSpace=wrap;html=1;align=center;" vertex="1" parent="1">
          <mxGeometry x="480" y="-10" width="100" height="40" as="geometry" />
        </mxCell>
        <mxCell id="ewGO8U9_hze2pfh3veyB-60" style="edgeStyle=none;rounded=0;orthogonalLoop=1;jettySize=auto;html=1;exitX=0.5;exitY=1;exitDx=0;exitDy=0;startArrow=none;startFill=0;endArrow=none;endFill=0;" edge="1" parent="1" source="ewGO8U9_hze2pfh3veyB-52" target="ewGO8U9_hze2pfh3veyB-40">
          <mxGeometry relative="1" as="geometry" />
        </mxCell>
        <mxCell id="ewGO8U9_hze2pfh3veyB-52" value="CodigoPostal&lt;span style=&quot;color: rgba(0 , 0 , 0 , 0) ; font-family: monospace ; font-size: 0px&quot;&gt;%3CmxGraphModel%3E%3Croot%3E%3CmxCell%20id%3D%220%22%2F%3E%3CmxCell%20id%3D%221%22%20parent%3D%220%22%2F%3E%3CmxCell%20id%3D%222%22%20value%3D%22PrefijoCuadrante%22%20style%3D%22ellipse%3BwhiteSpace%3Dwrap%3Bhtml%3D1%3Balign%3Dcenter%3B%22%20vertex%3D%221%22%20parent%3D%221%22%3E%3CmxGeometry%20x%3D%22810%22%20y%3D%22-130%22%20width%3D%22100%22%20height%3D%2240%22%20as%3D%22geometry%22%2F%3E%3C%2FmxCell%3E%3C%2Froot%3E%3C%2FmxGraphModel%3E&lt;/span&gt;&lt;span style=&quot;color: rgba(0 , 0 , 0 , 0) ; font-family: monospace ; font-size: 0px&quot;&gt;%3CmxGraphModel%3E%3Croot%3E%3CmxCell%20id%3D%220%22%2F%3E%3CmxCell%20id%3D%221%22%20parent%3D%220%22%2F%3E%3CmxCell%20id%3D%222%22%20value%3D%22PrefijoCuadrante%22%20style%3D%22ellipse%3BwhiteSpace%3Dwrap%3Bhtml%3D1%3Balign%3Dcenter%3B%22%20vertex%3D%221%22%20parent%3D%221%22%3E%3CmxGeometry%20x%3D%22810%22%20y%3D%22-130%22%20width%3D%22100%22%20height%3D%2240%22%20as%3D%22geometry%22%2F%3E%3C%2FmxCell%3E%3C%2Froot%3E%3C%2FmxGraphModel%3E&lt;/span&gt;" style="ellipse;whiteSpace=wrap;html=1;align=center;" vertex="1" parent="1">
          <mxGeometry x="827" y="-110" width="100" height="40" as="geometry" />
        </mxCell>
        <mxCell id="ewGO8U9_hze2pfh3veyB-66" style="edgeStyle=none;rounded=0;orthogonalLoop=1;jettySize=auto;html=1;exitX=0;exitY=0.5;exitDx=0;exitDy=0;entryX=1;entryY=0.5;entryDx=0;entryDy=0;startArrow=none;startFill=0;endArrow=none;endFill=0;" edge="1" parent="1" source="ewGO8U9_hze2pfh3veyB-53" target="ewGO8U9_hze2pfh3veyB-40">
          <mxGeometry relative="1" as="geometry" />
        </mxCell>
        <mxCell id="ewGO8U9_hze2pfh3veyB-53" value="NumPlaca" style="ellipse;whiteSpace=wrap;html=1;align=center;" vertex="1" parent="1">
          <mxGeometry x="920" y="-30" width="100" height="40" as="geometry" />
        </mxCell>
        <mxCell id="ewGO8U9_hze2pfh3veyB-65" style="edgeStyle=none;rounded=0;orthogonalLoop=1;jettySize=auto;html=1;exitX=0;exitY=1;exitDx=0;exitDy=0;entryX=1;entryY=0;entryDx=0;entryDy=0;startArrow=none;startFill=0;endArrow=none;endFill=0;" edge="1" parent="1" source="ewGO8U9_hze2pfh3veyB-54" target="ewGO8U9_hze2pfh3veyB-40">
          <mxGeometry relative="1" as="geometry" />
        </mxCell>
        <mxCell id="ewGO8U9_hze2pfh3veyB-54" value="NumViaGenerador" style="ellipse;whiteSpace=wrap;html=1;align=center;" vertex="1" parent="1">
          <mxGeometry x="910" y="-80" width="100" height="40" as="geometry" />
        </mxCell>
        <mxCell id="ewGO8U9_hze2pfh3veyB-69" value="N" style="text;html=1;align=center;verticalAlign=middle;resizable=0;points=[];autosize=1;strokeColor=none;fillColor=none;" vertex="1" parent="1">
          <mxGeometry x="1120" y="110" width="20" height="20" as="geometry" />
        </mxCell>
        <mxCell id="ewGO8U9_hze2pfh3veyB-70" value="1" style="text;html=1;align=center;verticalAlign=middle;resizable=0;points=[];autosize=1;strokeColor=none;fillColor=none;" vertex="1" parent="1">
          <mxGeometry x="730" y="110" width="20" height="20" as="geometry" />
        </mxCell>
        <mxCell id="ewGO8U9_hze2pfh3veyB-91" style="edgeStyle=none;rounded=0;orthogonalLoop=1;jettySize=auto;html=1;exitX=1;exitY=0.5;exitDx=0;exitDy=0;entryX=0;entryY=0.5;entryDx=0;entryDy=0;startArrow=none;startFill=0;endArrow=none;endFill=0;" edge="1" parent="1" source="ewGO8U9_hze2pfh3veyB-71" target="ewGO8U9_hze2pfh3veyB-83">
          <mxGeometry relative="1" as="geometry" />
        </mxCell>
        <mxCell id="ewGO8U9_hze2pfh3veyB-71" value="tresD" style="whiteSpace=wrap;html=1;align=center;" vertex="1" parent="1">
          <mxGeometry x="1380" y="90" width="100" height="40" as="geometry" />
        </mxCell>
        <mxCell id="ewGO8U9_hze2pfh3veyB-92" style="edgeStyle=none;rounded=0;orthogonalLoop=1;jettySize=auto;html=1;exitX=1;exitY=0.5;exitDx=0;exitDy=0;entryX=0;entryY=0.5;entryDx=0;entryDy=0;startArrow=none;startFill=0;endArrow=none;endFill=0;" edge="1" parent="1" source="ewGO8U9_hze2pfh3veyB-72" target="ewGO8U9_hze2pfh3veyB-82">
          <mxGeometry relative="1" as="geometry" />
        </mxCell>
        <mxCell id="ewGO8U9_hze2pfh3veyB-72" value="cuatroD" style="whiteSpace=wrap;html=1;align=center;" vertex="1" parent="1">
          <mxGeometry x="1380" y="20" width="100" height="40" as="geometry" />
        </mxCell>
        <mxCell id="ewGO8U9_hze2pfh3veyB-90" style="edgeStyle=none;rounded=0;orthogonalLoop=1;jettySize=auto;html=1;exitX=1;exitY=0.5;exitDx=0;exitDy=0;entryX=0;entryY=0.5;entryDx=0;entryDy=0;startArrow=none;startFill=0;endArrow=none;endFill=0;" edge="1" parent="1" source="ewGO8U9_hze2pfh3veyB-73" target="ewGO8U9_hze2pfh3veyB-84">
          <mxGeometry relative="1" as="geometry" />
        </mxCell>
        <mxCell id="ewGO8U9_hze2pfh3veyB-73" value="dosD" style="whiteSpace=wrap;html=1;align=center;" vertex="1" parent="1">
          <mxGeometry x="1380" y="160" width="100" height="40" as="geometry" />
        </mxCell>
        <mxCell id="ewGO8U9_hze2pfh3veyB-76" style="edgeStyle=none;rounded=0;orthogonalLoop=1;jettySize=auto;html=1;exitX=0.5;exitY=0;exitDx=0;exitDy=0;entryX=0;entryY=0.5;entryDx=0;entryDy=0;startArrow=none;startFill=0;endArrow=none;endFill=0;" edge="1" parent="1" source="ewGO8U9_hze2pfh3veyB-74" target="ewGO8U9_hze2pfh3veyB-72">
          <mxGeometry relative="1" as="geometry" />
        </mxCell>
        <mxCell id="ewGO8U9_hze2pfh3veyB-77" style="edgeStyle=none;rounded=0;orthogonalLoop=1;jettySize=auto;html=1;exitX=1;exitY=0.5;exitDx=0;exitDy=0;entryX=0;entryY=0.5;entryDx=0;entryDy=0;startArrow=none;startFill=0;endArrow=none;endFill=0;" edge="1" parent="1" source="ewGO8U9_hze2pfh3veyB-74" target="ewGO8U9_hze2pfh3veyB-71">
          <mxGeometry relative="1" as="geometry" />
        </mxCell>
        <mxCell id="ewGO8U9_hze2pfh3veyB-78" style="edgeStyle=none;rounded=0;orthogonalLoop=1;jettySize=auto;html=1;exitX=0.5;exitY=1;exitDx=0;exitDy=0;entryX=0;entryY=0.5;entryDx=0;entryDy=0;startArrow=none;startFill=0;endArrow=none;endFill=0;" edge="1" parent="1" source="ewGO8U9_hze2pfh3veyB-74" target="ewGO8U9_hze2pfh3veyB-73">
          <mxGeometry relative="1" as="geometry" />
        </mxCell>
        <mxCell id="ewGO8U9_hze2pfh3veyB-74" value="o" style="triangle;whiteSpace=wrap;html=1;rotation=0;" vertex="1" parent="1">
          <mxGeometry x="1290" y="70" width="60" height="80" as="geometry" />
        </mxCell>
        <mxCell id="ewGO8U9_hze2pfh3veyB-149" style="edgeStyle=none;rounded=0;orthogonalLoop=1;jettySize=auto;html=1;exitX=1;exitY=0.5;exitDx=0;exitDy=0;entryX=0.25;entryY=0;entryDx=0;entryDy=0;startArrow=none;startFill=0;endArrow=none;endFill=0;" edge="1" parent="1" source="ewGO8U9_hze2pfh3veyB-79" target="ewGO8U9_hze2pfh3veyB-33">
          <mxGeometry relative="1" as="geometry" />
        </mxCell>
        <mxCell id="ewGO8U9_hze2pfh3veyB-79" value="NumSala" style="ellipse;whiteSpace=wrap;html=1;align=center;" vertex="1" parent="1">
          <mxGeometry x="1040" y="40" width="100" height="40" as="geometry" />
        </mxCell>
        <mxCell id="ewGO8U9_hze2pfh3veyB-150" style="edgeStyle=none;rounded=0;orthogonalLoop=1;jettySize=auto;html=1;exitX=0.586;exitY=1.071;exitDx=0;exitDy=0;entryX=0.5;entryY=0;entryDx=0;entryDy=0;startArrow=none;startFill=0;endArrow=none;endFill=0;exitPerimeter=0;" edge="1" parent="1" source="ewGO8U9_hze2pfh3veyB-80" target="ewGO8U9_hze2pfh3veyB-33">
          <mxGeometry relative="1" as="geometry" />
        </mxCell>
        <mxCell id="ewGO8U9_hze2pfh3veyB-80" value="Capacidad&lt;span style=&quot;color: rgba(0 , 0 , 0 , 0) ; font-family: monospace ; font-size: 0px&quot;&gt;%3CmxGraphModel%3E%3Croot%3E%3CmxCell%20id%3D%220%22%2F%3E%3CmxCell%20id%3D%221%22%20parent%3D%220%22%2F%3E%3CmxCell%20id%3D%222%22%20value%3D%22CodigoPostal%26lt%3Bspan%20style%3D%26quot%3Bcolor%3A%20rgba(0%20%2C%200%20%2C%200%20%2C%200)%20%3B%20font-family%3A%20monospace%20%3B%20font-size%3A%200px%26quot%3B%26gt%3B%253CmxGraphModel%253E%253Croot%253E%253CmxCell%2520id%253D%25220%2522%252F%253E%253CmxCell%2520id%253D%25221%2522%2520parent%253D%25220%2522%252F%253E%253CmxCell%2520id%253D%25222%2522%2520value%253D%2522PrefijoCuadrante%2522%2520style%253D%2522ellipse%253BwhiteSpace%253Dwrap%253Bhtml%253D1%253Balign%253Dcenter%253B%2522%2520vertex%253D%25221%2522%2520parent%253D%25221%2522%253E%253CmxGeometry%2520x%253D%2522810%2522%2520y%253D%2522-130%2522%2520width%253D%2522100%2522%2520height%253D%252240%2522%2520as%253D%2522geometry%2522%252F%253E%253C%252FmxCell%253E%253C%252Froot%253E%253C%252FmxGraphModel%253E%26lt%3B%2Fspan%26gt%3B%26lt%3Bspan%20style%3D%26quot%3Bcolor%3A%20rgba(0%20%2C%200%20%2C%200%20%2C%200)%20%3B%20font-family%3A%20monospace%20%3B%20font-size%3A%200px%26quot%3B%26gt%3B%253CmxGraphModel%253E%253Croot%253E%253CmxCell%2520id%253D%25220%2522%252F%253E%253CmxCell%2520id%253D%25221%2522%2520parent%253D%25220%2522%252F%253E%253CmxCell%2520id%253D%25222%2522%2520value%253D%2522PrefijoCuadrante%2522%2520style%253D%2522ellipse%253BwhiteSpace%253Dwrap%253Bhtml%253D1%253Balign%253Dcenter%253B%2522%2520vertex%253D%25221%2522%2520parent%253D%25221%2522%253E%253CmxGeometry%2520x%253D%2522810%2522%2520y%253D%2522-130%2522%2520width%253D%2522100%2522%2520height%253D%252240%2522%2520as%253D%2522geometry%2522%252F%253E%253C%252FmxCell%253E%253C%252Froot%253E%253C%252FmxGraphModel%253E%26lt%3B%2Fspan%26gt%3B%22%20style%3D%22ellipse%3BwhiteSpace%3Dwrap%3Bhtml%3D1%3Balign%3Dcenter%3B%22%20vertex%3D%221%22%20parent%3D%221%22%3E%3CmxGeometry%20x%3D%22890%22%20y%3D%22-90%22%20width%3D%22100%22%20height%3D%2240%22%20as%3D%22geometry%22%2F%3E%3C%2FmxCell%3E%3C%2Froot%3E%3C%2FmxGraphModel%3E&lt;/span&gt;" style="ellipse;whiteSpace=wrap;html=1;align=center;" vertex="1" parent="1">
          <mxGeometry x="1120" width="100" height="40" as="geometry" />
        </mxCell>
        <mxCell id="ewGO8U9_hze2pfh3veyB-151" style="edgeStyle=none;rounded=0;orthogonalLoop=1;jettySize=auto;html=1;exitX=0.5;exitY=1;exitDx=0;exitDy=0;entryX=0.75;entryY=0;entryDx=0;entryDy=0;startArrow=none;startFill=0;endArrow=none;endFill=0;" edge="1" parent="1" source="ewGO8U9_hze2pfh3veyB-81" target="ewGO8U9_hze2pfh3veyB-33">
          <mxGeometry relative="1" as="geometry" />
        </mxCell>
        <mxCell id="ewGO8U9_hze2pfh3veyB-81" value="DescripcionSala" style="ellipse;whiteSpace=wrap;html=1;align=center;" vertex="1" parent="1">
          <mxGeometry x="1230" y="10" width="100" height="40" as="geometry" />
        </mxCell>
        <mxCell id="ewGO8U9_hze2pfh3veyB-82" value="ResolucionPantalla" style="ellipse;whiteSpace=wrap;html=1;align=center;" vertex="1" parent="1">
          <mxGeometry x="1510" y="20" width="110" height="40" as="geometry" />
        </mxCell>
        <mxCell id="ewGO8U9_hze2pfh3veyB-83" value="NumGafas" style="ellipse;whiteSpace=wrap;html=1;align=center;" vertex="1" parent="1">
          <mxGeometry x="1510" y="90" width="100" height="40" as="geometry" />
        </mxCell>
        <mxCell id="ewGO8U9_hze2pfh3veyB-84" value="RefProyector&lt;span style=&quot;color: rgba(0 , 0 , 0 , 0) ; font-family: monospace ; font-size: 0px&quot;&gt;%3CmxGraphModel%3E%3Croot%3E%3CmxCell%20id%3D%220%22%2F%3E%3CmxCell%20id%3D%221%22%20parent%3D%220%22%2F%3E%3CmxCell%20id%3D%222%22%20value%3D%22CodigoPostal%26lt%3Bspan%20style%3D%26quot%3Bcolor%3A%20rgba(0%20%2C%200%20%2C%200%20%2C%200)%20%3B%20font-family%3A%20monospace%20%3B%20font-size%3A%200px%26quot%3B%26gt%3B%253CmxGraphModel%253E%253Croot%253E%253CmxCell%2520id%253D%25220%2522%252F%253E%253CmxCell%2520id%253D%25221%2522%2520parent%253D%25220%2522%252F%253E%253CmxCell%2520id%253D%25222%2522%2520value%253D%2522PrefijoCuadrante%2522%2520style%253D%2522ellipse%253BwhiteSpace%253Dwrap%253Bhtml%253D1%253Balign%253Dcenter%253B%2522%2520vertex%253D%25221%2522%2520parent%253D%25221%2522%253E%253CmxGeometry%2520x%253D%2522810%2522%2520y%253D%2522-130%2522%2520width%253D%2522100%2522%2520height%253D%252240%2522%2520as%253D%2522geometry%2522%252F%253E%253C%252FmxCell%253E%253C%252Froot%253E%253C%252FmxGraphModel%253E%26lt%3B%2Fspan%26gt%3B%26lt%3Bspan%20style%3D%26quot%3Bcolor%3A%20rgba(0%20%2C%200%20%2C%200%20%2C%200)%20%3B%20font-family%3A%20monospace%20%3B%20font-size%3A%200px%26quot%3B%26gt%3B%253CmxGraphModel%253E%253Croot%253E%253CmxCell%2520id%253D%25220%2522%252F%253E%253CmxCell%2520id%253D%25221%2522%2520parent%253D%25220%2522%252F%253E%253CmxCell%2520id%253D%25222%2522%2520value%253D%2522PrefijoCuadrante%2522%2520style%253D%2522ellipse%253BwhiteSpace%253Dwrap%253Bhtml%253D1%253Balign%253Dcenter%253B%2522%2520vertex%253D%25221%2522%2520parent%253D%25221%2522%253E%253CmxGeometry%2520x%253D%2522810%2522%2520y%253D%2522-130%2522%2520width%253D%2522100%2522%2520height%253D%252240%2522%2520as%253D%2522geometry%2522%252F%253E%253C%252FmxCell%253E%253C%252Froot%253E%253C%252FmxGraphModel%253E%26lt%3B%2Fspan%26gt%3B%22%20style%3D%22ellipse%3BwhiteSpace%3Dwrap%3Bhtml%3D1%3Balign%3Dcenter%3B%22%20vertex%3D%221%22%20parent%3D%221%22%3E%3CmxGeometry%20x%3D%22890%22%20y%3D%22-90%22%20width%3D%22100%22%20height%3D%2240%22%20as%3D%22geometry%22%2F%3E%3C%2FmxCell%3E%3C%2Froot%3E%3C%2FmxGraphModel%3E&lt;/span&gt;" style="ellipse;whiteSpace=wrap;html=1;align=center;" vertex="1" parent="1">
          <mxGeometry x="1510" y="160" width="100" height="40" as="geometry" />
        </mxCell>
        <mxCell id="ewGO8U9_hze2pfh3veyB-87" style="edgeStyle=none;rounded=0;orthogonalLoop=1;jettySize=auto;html=1;exitX=0.5;exitY=1;exitDx=0;exitDy=0;entryX=0.5;entryY=0;entryDx=0;entryDy=0;startArrow=none;startFill=0;endArrow=none;endFill=0;shape=link;" edge="1" parent="1" source="ewGO8U9_hze2pfh3veyB-85" target="ewGO8U9_hze2pfh3veyB-5">
          <mxGeometry relative="1" as="geometry" />
        </mxCell>
        <mxCell id="ewGO8U9_hze2pfh3veyB-85" value="Programacion" style="shape=rhombus;perimeter=rhombusPerimeter;whiteSpace=wrap;html=1;align=center;" vertex="1" parent="1">
          <mxGeometry x="1140" y="210" width="120" height="60" as="geometry" />
        </mxCell>
        <mxCell id="ewGO8U9_hze2pfh3veyB-88" value="N" style="text;html=1;align=center;verticalAlign=middle;resizable=0;points=[];autosize=1;strokeColor=none;fillColor=none;" vertex="1" parent="1">
          <mxGeometry x="1200" y="320" width="20" height="20" as="geometry" />
        </mxCell>
        <mxCell id="ewGO8U9_hze2pfh3veyB-89" value="M" style="text;html=1;align=center;verticalAlign=middle;resizable=0;points=[];autosize=1;strokeColor=none;fillColor=none;" vertex="1" parent="1">
          <mxGeometry x="1195" y="130" width="30" height="20" as="geometry" />
        </mxCell>
        <mxCell id="ewGO8U9_hze2pfh3veyB-97" style="edgeStyle=none;rounded=0;orthogonalLoop=1;jettySize=auto;html=1;exitX=0;exitY=0.5;exitDx=0;exitDy=0;entryX=1;entryY=0.5;entryDx=0;entryDy=0;startArrow=none;startFill=0;endArrow=none;endFill=0;" edge="1" parent="1" source="ewGO8U9_hze2pfh3veyB-93" target="ewGO8U9_hze2pfh3veyB-85">
          <mxGeometry relative="1" as="geometry" />
        </mxCell>
        <mxCell id="ewGO8U9_hze2pfh3veyB-93" value="Fecha" style="ellipse;whiteSpace=wrap;html=1;align=center;" vertex="1" parent="1">
          <mxGeometry x="1290" y="220" width="100" height="40" as="geometry" />
        </mxCell>
        <mxCell id="ewGO8U9_hze2pfh3veyB-98" style="edgeStyle=none;rounded=0;orthogonalLoop=1;jettySize=auto;html=1;exitX=0;exitY=0.5;exitDx=0;exitDy=0;entryX=1;entryY=1;entryDx=0;entryDy=0;startArrow=none;startFill=0;endArrow=none;endFill=0;" edge="1" parent="1" source="ewGO8U9_hze2pfh3veyB-94" target="ewGO8U9_hze2pfh3veyB-85">
          <mxGeometry relative="1" as="geometry" />
        </mxCell>
        <mxCell id="ewGO8U9_hze2pfh3veyB-94" value="HoraFin" style="ellipse;whiteSpace=wrap;html=1;align=center;" vertex="1" parent="1">
          <mxGeometry x="1260" y="270" width="100" height="40" as="geometry" />
        </mxCell>
        <mxCell id="ewGO8U9_hze2pfh3veyB-96" style="edgeStyle=none;rounded=0;orthogonalLoop=1;jettySize=auto;html=1;exitX=0;exitY=0.5;exitDx=0;exitDy=0;entryX=1;entryY=0;entryDx=0;entryDy=0;startArrow=none;startFill=0;endArrow=none;endFill=0;" edge="1" parent="1" source="ewGO8U9_hze2pfh3veyB-95" target="ewGO8U9_hze2pfh3veyB-85">
          <mxGeometry relative="1" as="geometry" />
        </mxCell>
        <mxCell id="ewGO8U9_hze2pfh3veyB-95" value="HoraInicio" style="ellipse;whiteSpace=wrap;html=1;align=center;" vertex="1" parent="1">
          <mxGeometry x="1260" y="170" width="100" height="40" as="geometry" />
        </mxCell>
        <mxCell id="ewGO8U9_hze2pfh3veyB-103" style="edgeStyle=none;rounded=0;orthogonalLoop=1;jettySize=auto;html=1;exitX=1;exitY=0.5;exitDx=0;exitDy=0;entryX=0;entryY=0.5;entryDx=0;entryDy=0;startArrow=none;startFill=0;endArrow=none;endFill=0;shape=link;" edge="1" parent="1" source="ewGO8U9_hze2pfh3veyB-100" target="ewGO8U9_hze2pfh3veyB-5">
          <mxGeometry relative="1" as="geometry" />
        </mxCell>
        <mxCell id="ewGO8U9_hze2pfh3veyB-100" value="Hace" style="shape=rhombus;perimeter=rhombusPerimeter;whiteSpace=wrap;html=1;align=center;" vertex="1" parent="1">
          <mxGeometry x="840" y="330" width="120" height="60" as="geometry" />
        </mxCell>
        <mxCell id="ewGO8U9_hze2pfh3veyB-108" style="edgeStyle=none;rounded=0;orthogonalLoop=1;jettySize=auto;html=1;exitX=1;exitY=1;exitDx=0;exitDy=0;entryX=0.174;entryY=0.012;entryDx=0;entryDy=0;entryPerimeter=0;startArrow=none;startFill=0;endArrow=none;endFill=0;" edge="1" parent="1" source="ewGO8U9_hze2pfh3veyB-105" target="ewGO8U9_hze2pfh3veyB-9">
          <mxGeometry relative="1" as="geometry" />
        </mxCell>
        <mxCell id="ewGO8U9_hze2pfh3veyB-105" value="IdDirector" style="ellipse;whiteSpace=wrap;html=1;align=center;fontStyle=4;" vertex="1" parent="1">
          <mxGeometry x="550" y="290" width="100" height="40" as="geometry" />
        </mxCell>
        <mxCell id="ewGO8U9_hze2pfh3veyB-110" style="edgeStyle=none;rounded=0;orthogonalLoop=1;jettySize=auto;html=1;exitX=0.5;exitY=1;exitDx=0;exitDy=0;entryX=0.75;entryY=0;entryDx=0;entryDy=0;startArrow=none;startFill=0;endArrow=none;endFill=0;" edge="1" parent="1" source="ewGO8U9_hze2pfh3veyB-106" target="ewGO8U9_hze2pfh3veyB-9">
          <mxGeometry relative="1" as="geometry" />
        </mxCell>
        <mxCell id="ewGO8U9_hze2pfh3veyB-106" value="segundoNombre" style="ellipse;whiteSpace=wrap;html=1;align=center;" vertex="1" parent="1">
          <mxGeometry x="740" y="250" width="100" height="40" as="geometry" />
        </mxCell>
        <mxCell id="ewGO8U9_hze2pfh3veyB-109" style="edgeStyle=none;rounded=0;orthogonalLoop=1;jettySize=auto;html=1;exitX=0.5;exitY=1;exitDx=0;exitDy=0;entryX=0.433;entryY=0.041;entryDx=0;entryDy=0;entryPerimeter=0;startArrow=none;startFill=0;endArrow=none;endFill=0;" edge="1" parent="1" source="ewGO8U9_hze2pfh3veyB-107" target="ewGO8U9_hze2pfh3veyB-9">
          <mxGeometry relative="1" as="geometry" />
        </mxCell>
        <mxCell id="ewGO8U9_hze2pfh3veyB-107" value="primerNombre" style="ellipse;whiteSpace=wrap;html=1;align=center;" vertex="1" parent="1">
          <mxGeometry x="630" y="240" width="100" height="40" as="geometry" />
        </mxCell>
        <mxCell id="ewGO8U9_hze2pfh3veyB-113" style="edgeStyle=none;shape=link;rounded=0;orthogonalLoop=1;jettySize=auto;html=1;exitX=0;exitY=0.5;exitDx=0;exitDy=0;entryX=1;entryY=0;entryDx=0;entryDy=0;startArrow=none;startFill=0;endArrow=none;endFill=0;" edge="1" parent="1" source="ewGO8U9_hze2pfh3veyB-111" target="ewGO8U9_hze2pfh3veyB-7">
          <mxGeometry relative="1" as="geometry" />
        </mxCell>
        <mxCell id="ewGO8U9_hze2pfh3veyB-145" style="edgeStyle=none;rounded=0;orthogonalLoop=1;jettySize=auto;html=1;exitX=1;exitY=0.5;exitDx=0;exitDy=0;entryX=0;entryY=0.5;entryDx=0;entryDy=0;startArrow=none;startFill=0;endArrow=none;endFill=0;shape=link;" edge="1" parent="1" source="ewGO8U9_hze2pfh3veyB-111" target="ewGO8U9_hze2pfh3veyB-5">
          <mxGeometry relative="1" as="geometry" />
        </mxCell>
        <mxCell id="ewGO8U9_hze2pfh3veyB-111" value="Asocia" style="shape=rhombus;perimeter=rhombusPerimeter;whiteSpace=wrap;html=1;align=center;" vertex="1" parent="1">
          <mxGeometry x="790" y="430" width="120" height="60" as="geometry" />
        </mxCell>
        <mxCell id="ewGO8U9_hze2pfh3veyB-116" style="edgeStyle=none;rounded=0;orthogonalLoop=1;jettySize=auto;html=1;exitX=0.5;exitY=1;exitDx=0;exitDy=0;entryX=0.5;entryY=0;entryDx=0;entryDy=0;startArrow=none;startFill=0;endArrow=none;endFill=0;" edge="1" parent="1" source="ewGO8U9_hze2pfh3veyB-114" target="ewGO8U9_hze2pfh3veyB-6">
          <mxGeometry relative="1" as="geometry" />
        </mxCell>
        <mxCell id="ewGO8U9_hze2pfh3veyB-114" value="Posee" style="shape=rhombus;perimeter=rhombusPerimeter;whiteSpace=wrap;html=1;align=center;" vertex="1" parent="1">
          <mxGeometry x="1146" y="585" width="120" height="60" as="geometry" />
        </mxCell>
        <mxCell id="ewGO8U9_hze2pfh3veyB-119" style="edgeStyle=none;rounded=0;orthogonalLoop=1;jettySize=auto;html=1;exitX=0.5;exitY=1;exitDx=0;exitDy=0;entryX=1;entryY=0;entryDx=0;entryDy=0;startArrow=none;startFill=0;endArrow=none;endFill=0;" edge="1" parent="1" source="ewGO8U9_hze2pfh3veyB-117" target="ewGO8U9_hze2pfh3veyB-6">
          <mxGeometry relative="1" as="geometry" />
        </mxCell>
        <mxCell id="ewGO8U9_hze2pfh3veyB-139" style="edgeStyle=none;rounded=0;orthogonalLoop=1;jettySize=auto;html=1;exitX=0.5;exitY=0;exitDx=0;exitDy=0;entryX=0.5;entryY=1;entryDx=0;entryDy=0;startArrow=none;startFill=0;endArrow=none;endFill=0;shape=link;" edge="1" parent="1" source="ewGO8U9_hze2pfh3veyB-117" target="ewGO8U9_hze2pfh3veyB-5">
          <mxGeometry relative="1" as="geometry" />
        </mxCell>
        <mxCell id="ewGO8U9_hze2pfh3veyB-117" value="Subtitula" style="shape=rhombus;perimeter=rhombusPerimeter;whiteSpace=wrap;html=1;align=center;" vertex="1" parent="1">
          <mxGeometry x="1276" y="585" width="120" height="60" as="geometry" />
        </mxCell>
        <mxCell id="ewGO8U9_hze2pfh3veyB-124" style="edgeStyle=none;shape=link;rounded=0;orthogonalLoop=1;jettySize=auto;html=1;exitX=1;exitY=0.5;exitDx=0;exitDy=0;entryX=0;entryY=0.5;entryDx=0;entryDy=0;startArrow=none;startFill=0;endArrow=none;endFill=0;" edge="1" parent="1" source="ewGO8U9_hze2pfh3veyB-121" target="ewGO8U9_hze2pfh3veyB-10">
          <mxGeometry relative="1" as="geometry" />
        </mxCell>
        <mxCell id="ewGO8U9_hze2pfh3veyB-121" value="Dispone" style="shape=rhombus;perimeter=rhombusPerimeter;whiteSpace=wrap;html=1;align=center;" vertex="1" parent="1">
          <mxGeometry x="1430" y="330" width="120" height="60" as="geometry" />
        </mxCell>
        <mxCell id="ewGO8U9_hze2pfh3veyB-127" style="edgeStyle=none;rounded=0;orthogonalLoop=1;jettySize=auto;html=1;exitX=0.5;exitY=1;exitDx=0;exitDy=0;startArrow=none;startFill=0;endArrow=none;endFill=0;" edge="1" parent="1" source="ewGO8U9_hze2pfh3veyB-125" target="ewGO8U9_hze2pfh3veyB-10">
          <mxGeometry relative="1" as="geometry" />
        </mxCell>
        <mxCell id="ewGO8U9_hze2pfh3veyB-125" value="IdFormato" style="ellipse;whiteSpace=wrap;html=1;align=center;fontStyle=4;" vertex="1" parent="1">
          <mxGeometry x="1710" y="260" width="100" height="40" as="geometry" />
        </mxCell>
        <mxCell id="ewGO8U9_hze2pfh3veyB-128" style="edgeStyle=none;rounded=0;orthogonalLoop=1;jettySize=auto;html=1;exitX=0.5;exitY=0;exitDx=0;exitDy=0;entryX=0.5;entryY=1;entryDx=0;entryDy=0;startArrow=none;startFill=0;endArrow=none;endFill=0;" edge="1" parent="1" source="ewGO8U9_hze2pfh3veyB-126" target="ewGO8U9_hze2pfh3veyB-10">
          <mxGeometry relative="1" as="geometry" />
        </mxCell>
        <mxCell id="ewGO8U9_hze2pfh3veyB-126" value="TipoFormato" style="ellipse;whiteSpace=wrap;html=1;align=center;" vertex="1" parent="1">
          <mxGeometry x="1710" y="410" width="100" height="40" as="geometry" />
        </mxCell>
        <mxCell id="ewGO8U9_hze2pfh3veyB-131" style="edgeStyle=none;rounded=0;orthogonalLoop=1;jettySize=auto;html=1;exitX=0.5;exitY=0;exitDx=0;exitDy=0;entryX=0.25;entryY=1;entryDx=0;entryDy=0;startArrow=none;startFill=0;endArrow=none;endFill=0;" edge="1" parent="1" source="ewGO8U9_hze2pfh3veyB-129" target="ewGO8U9_hze2pfh3veyB-6">
          <mxGeometry relative="1" as="geometry" />
        </mxCell>
        <mxCell id="ewGO8U9_hze2pfh3veyB-129" value="IdIdioma" style="ellipse;whiteSpace=wrap;html=1;align=center;fontStyle=4;" vertex="1" parent="1">
          <mxGeometry x="1086" y="775" width="100" height="40" as="geometry" />
        </mxCell>
        <mxCell id="ewGO8U9_hze2pfh3veyB-132" style="edgeStyle=none;rounded=0;orthogonalLoop=1;jettySize=auto;html=1;exitX=0.5;exitY=0;exitDx=0;exitDy=0;entryX=0.75;entryY=1;entryDx=0;entryDy=0;startArrow=none;startFill=0;endArrow=none;endFill=0;" edge="1" parent="1" source="ewGO8U9_hze2pfh3veyB-130" target="ewGO8U9_hze2pfh3veyB-6">
          <mxGeometry relative="1" as="geometry" />
        </mxCell>
        <mxCell id="ewGO8U9_hze2pfh3veyB-130" value="Idioma" style="ellipse;whiteSpace=wrap;html=1;align=center;" vertex="1" parent="1">
          <mxGeometry x="1231" y="775" width="100" height="40" as="geometry" />
        </mxCell>
        <mxCell id="ewGO8U9_hze2pfh3veyB-136" style="edgeStyle=none;rounded=0;orthogonalLoop=1;jettySize=auto;html=1;exitX=1;exitY=0.5;exitDx=0;exitDy=0;entryX=0;entryY=0.5;entryDx=0;entryDy=0;startArrow=none;startFill=0;endArrow=none;endFill=0;" edge="1" parent="1" source="ewGO8U9_hze2pfh3veyB-133" target="ewGO8U9_hze2pfh3veyB-7">
          <mxGeometry relative="1" as="geometry" />
        </mxCell>
        <mxCell id="ewGO8U9_hze2pfh3veyB-133" value="DescripcionGenero" style="ellipse;whiteSpace=wrap;html=1;align=center;" vertex="1" parent="1">
          <mxGeometry x="490" y="597.5" width="110" height="35" as="geometry" />
        </mxCell>
        <mxCell id="ewGO8U9_hze2pfh3veyB-135" style="edgeStyle=none;rounded=0;orthogonalLoop=1;jettySize=auto;html=1;exitX=0.5;exitY=1;exitDx=0;exitDy=0;entryX=0.5;entryY=0;entryDx=0;entryDy=0;startArrow=none;startFill=0;endArrow=none;endFill=0;" edge="1" parent="1" source="ewGO8U9_hze2pfh3veyB-134" target="ewGO8U9_hze2pfh3veyB-7">
          <mxGeometry relative="1" as="geometry" />
        </mxCell>
        <mxCell id="ewGO8U9_hze2pfh3veyB-134" value="NombreGenero" style="ellipse;whiteSpace=wrap;html=1;align=center;" vertex="1" parent="1">
          <mxGeometry x="630" y="530" width="100" height="40" as="geometry" />
        </mxCell>
        <mxCell id="ewGO8U9_hze2pfh3veyB-138" style="edgeStyle=none;rounded=0;orthogonalLoop=1;jettySize=auto;html=1;exitX=0.5;exitY=0;exitDx=0;exitDy=0;entryX=0.5;entryY=1;entryDx=0;entryDy=0;startArrow=none;startFill=0;endArrow=none;endFill=0;" edge="1" parent="1" source="ewGO8U9_hze2pfh3veyB-137" target="ewGO8U9_hze2pfh3veyB-7">
          <mxGeometry relative="1" as="geometry" />
        </mxCell>
        <mxCell id="ewGO8U9_hze2pfh3veyB-137" value="IdGenero" style="ellipse;whiteSpace=wrap;html=1;align=center;fontStyle=4;" vertex="1" parent="1">
          <mxGeometry x="630" y="670" width="100" height="40" as="geometry" />
        </mxCell>
        <mxCell id="ewGO8U9_hze2pfh3veyB-157" style="edgeStyle=none;rounded=0;orthogonalLoop=1;jettySize=auto;html=1;exitX=1;exitY=0.5;exitDx=0;exitDy=0;entryX=0.392;entryY=0.982;entryDx=0;entryDy=0;entryPerimeter=0;startArrow=none;startFill=0;endArrow=none;endFill=0;" edge="1" parent="1" source="ewGO8U9_hze2pfh3veyB-140" target="ewGO8U9_hze2pfh3veyB-5">
          <mxGeometry relative="1" as="geometry" />
        </mxCell>
        <mxCell id="ewGO8U9_hze2pfh3veyB-140" value="IdPelicula" style="ellipse;whiteSpace=wrap;html=1;align=center;fontStyle=4;" vertex="1" parent="1">
          <mxGeometry x="1020" y="470" width="100" height="40" as="geometry" />
        </mxCell>
        <mxCell id="ewGO8U9_hze2pfh3veyB-148" style="edgeStyle=none;rounded=0;orthogonalLoop=1;jettySize=auto;html=1;exitX=1;exitY=0.5;exitDx=0;exitDy=0;entryX=0.392;entryY=-0.018;entryDx=0;entryDy=0;entryPerimeter=0;startArrow=none;startFill=0;endArrow=none;endFill=0;" edge="1" parent="1" source="ewGO8U9_hze2pfh3veyB-141" target="ewGO8U9_hze2pfh3veyB-5">
          <mxGeometry relative="1" as="geometry" />
        </mxCell>
        <mxCell id="ewGO8U9_hze2pfh3veyB-141" value="titulo" style="ellipse;whiteSpace=wrap;html=1;align=center;" vertex="1" parent="1">
          <mxGeometry x="1010" y="240" width="100" height="40" as="geometry" />
        </mxCell>
        <mxCell id="ewGO8U9_hze2pfh3veyB-144" style="edgeStyle=none;rounded=0;orthogonalLoop=1;jettySize=auto;html=1;exitX=1;exitY=0.5;exitDx=0;exitDy=0;entryX=0.25;entryY=1;entryDx=0;entryDy=0;startArrow=none;startFill=0;endArrow=none;endFill=0;" edge="1" parent="1" source="ewGO8U9_hze2pfh3veyB-142" target="ewGO8U9_hze2pfh3veyB-5">
          <mxGeometry relative="1" as="geometry" />
        </mxCell>
        <mxCell id="ewGO8U9_hze2pfh3veyB-142" value="fechaEstreno" style="ellipse;whiteSpace=wrap;html=1;align=center;" vertex="1" parent="1">
          <mxGeometry x="1020" y="420" width="100" height="40" as="geometry" />
        </mxCell>
        <mxCell id="ewGO8U9_hze2pfh3veyB-147" style="edgeStyle=none;rounded=0;orthogonalLoop=1;jettySize=auto;html=1;exitX=1;exitY=0.5;exitDx=0;exitDy=0;entryX=0.25;entryY=0;entryDx=0;entryDy=0;startArrow=none;startFill=0;endArrow=none;endFill=0;" edge="1" parent="1" source="ewGO8U9_hze2pfh3veyB-143" target="ewGO8U9_hze2pfh3veyB-5">
          <mxGeometry relative="1" as="geometry" />
        </mxCell>
        <mxCell id="ewGO8U9_hze2pfh3veyB-143" value="duracion" style="ellipse;whiteSpace=wrap;html=1;align=center;" vertex="1" parent="1">
          <mxGeometry x="1010" y="290" width="100" height="40" as="geometry" />
        </mxCell>
        <mxCell id="ewGO8U9_hze2pfh3veyB-154" style="edgeStyle=none;rounded=0;orthogonalLoop=1;jettySize=auto;html=1;exitX=0.5;exitY=0;exitDx=0;exitDy=0;entryX=0.38;entryY=1.026;entryDx=0;entryDy=0;entryPerimeter=0;startArrow=none;startFill=0;endArrow=none;endFill=0;" edge="1" parent="1" source="ewGO8U9_hze2pfh3veyB-152" target="ewGO8U9_hze2pfh3veyB-8">
          <mxGeometry relative="1" as="geometry" />
        </mxCell>
        <mxCell id="ewGO8U9_hze2pfh3veyB-152" value="IdClasificacion" style="ellipse;whiteSpace=wrap;html=1;align=center;fontStyle=4;" vertex="1" parent="1">
          <mxGeometry x="1640" y="650" width="100" height="40" as="geometry" />
        </mxCell>
        <mxCell id="ewGO8U9_hze2pfh3veyB-155" style="edgeStyle=none;rounded=0;orthogonalLoop=1;jettySize=auto;html=1;exitX=0.5;exitY=0;exitDx=0;exitDy=0;entryX=0.662;entryY=1.056;entryDx=0;entryDy=0;entryPerimeter=0;startArrow=none;startFill=0;endArrow=none;endFill=0;" edge="1" parent="1" source="ewGO8U9_hze2pfh3veyB-153" target="ewGO8U9_hze2pfh3veyB-8">
          <mxGeometry relative="1" as="geometry" />
        </mxCell>
        <mxCell id="ewGO8U9_hze2pfh3veyB-153" value="TipoClasificacion" style="ellipse;whiteSpace=wrap;html=1;align=center;" vertex="1" parent="1">
          <mxGeometry x="1810" y="650" width="100" height="40" as="geometry" />
        </mxCell>
        <mxCell id="ewGO8U9_hze2pfh3veyB-159" style="edgeStyle=none;rounded=0;orthogonalLoop=1;jettySize=auto;html=1;exitX=1;exitY=0.5;exitDx=0;exitDy=0;entryX=0;entryY=0;entryDx=0;entryDy=0;startArrow=none;startFill=0;endArrow=none;endFill=0;shape=link;" edge="1" parent="1" source="ewGO8U9_hze2pfh3veyB-156" target="ewGO8U9_hze2pfh3veyB-8">
          <mxGeometry relative="1" as="geometry" />
        </mxCell>
        <mxCell id="ewGO8U9_hze2pfh3veyB-156" value="Presenta" style="shape=rhombus;perimeter=rhombusPerimeter;whiteSpace=wrap;html=1;align=center;" vertex="1" parent="1">
          <mxGeometry x="1420" y="460" width="120" height="60" as="geometry" />
        </mxCell>
      </root>
    </mxGraphModel>
  </diagram>
</mxfile>
